<?xml version="1.0" encoding="UTF-8" standalone="no"?>
<svg
   xmlns:dc="http://purl.org/dc/elements/1.1/"
   xmlns:cc="http://creativecommons.org/ns#"
   xmlns:rdf="http://www.w3.org/1999/02/22-rdf-syntax-ns#"
   xmlns:svg="http://www.w3.org/2000/svg"
   xmlns="http://www.w3.org/2000/svg"
   xmlns:sodipodi="http://sodipodi.sourceforge.net/DTD/sodipodi-0.dtd"
   xmlns:inkscape="http://www.inkscape.org/namespaces/inkscape"
   data-name="Layer 1"
   width="894.24907"
   height="448.2822"
   viewBox="0 0 894.24907 448.2822"
   version="1.1"
   id="svg962"
   sodipodi:docname="contact.svg"
   inkscape:version="1.0.1 (3bc2e813f5, 2020-09-07)">
  <metadata
     id="metadata968">
    <rdf:RDF>
      <cc:Work
         rdf:about="">
        <dc:format>image/svg+xml</dc:format>
        <dc:type
           rdf:resource="http://purl.org/dc/dcmitype/StillImage" />
        <dc:title></dc:title>
      </cc:Work>
    </rdf:RDF>
  </metadata>
  <defs
     id="defs966" />
  <sodipodi:namedview
     pagecolor="#ffffff"
     bordercolor="#666666"
     borderopacity="1"
     objecttolerance="10"
     gridtolerance="10"
     guidetolerance="10"
     inkscape:pageopacity="0"
     inkscape:pageshadow="2"
     inkscape:window-width="1920"
     inkscape:window-height="986"
     id="namedview964"
     showgrid="false"
     inkscape:zoom="1.0053127"
     inkscape:cx="584.9475"
     inkscape:cy="284.74201"
     inkscape:window-x="-11"
     inkscape:window-y="-11"
     inkscape:window-maximized="1"
     inkscape:current-layer="svg962" />
  <ellipse
     cx="406.86029"
     cy="187.36789"
     fill="#f0f0f0"
     id="circle924"
     rx="121.18268"
     ry="122.7114"
     style="stroke-width:2.39107" />
  <path
     d="m 513.08881,160.755 v 177.72908 a 14.013844,14.013844 0 0 1 -13.86771,14.01483 1.2322663,1.2322663 0 0 1 -0.15353,0.006 H 478.38198 A 62.405555,62.405555 0 0 1 415.97643,290.0995 V 160.75472 a 14.021144,14.021144 0 0 1 14.02114,-14.02114 h 8.38191 c -3.88315,11.32747 48.81823,16.09647 51.71148,0 h 8.97666 a 14.02119,14.02119 0 0 1 14.02113,14.02117 z"
     fill="#6c63ff"
     id="path928"
     style="fill:#4e6c50;fill-opacity:1;stroke-width:1.53684" />
  <path
     d="m 451.70307,133.44386 a 1.8396856,1.8396856 0 0 1 1.83752,-1.83753 h 12.49514 a 1.837534,1.837534 0 0 1 0,3.67505 h -12.49514 a 1.8396856,1.8396856 0 0 1 -1.83752,-1.83752 z"
     fill="#3f3d56"
     id="path930"
     style="stroke-width:1.53684" />
  <path
     d="M 503.36051,375.04876 H 424.34252 A 23.149815,23.149815 0 0 1 401.21868,351.92567 V 227.6858 a 3.3603086,3.3603086 0 0 1 -1.40026,-2.73374 v -12.49505 a 3.3588639,3.3588639 0 0 1 1.40026,-2.73299 v -3.35357 a 3.3589101,3.3589101 0 0 1 -1.40026,-2.73299 v -12.4958 a 3.3588639,3.3588639 0 0 1 1.40026,-2.73299 v -6.06105 a 3.3557288,3.3557288 0 0 1 -1.76796,-2.96562 v -12.49505 a 3.3569122,3.3569122 0 0 1 1.76796,-2.96637 v -16.60804 a 23.149815,23.149815 0 0 1 23.12381,-23.123 h 79.01799 a 23.149185,23.149185 0 0 1 23.12309,23.12307 v 36.2019 a 2.8983201,2.8983201 0 0 1 1.36124,2.45608 v 23.82547 a 2.8996111,2.8996111 0 0 1 -1.36124,2.45683 v 139.67278 a 23.149185,23.149185 0 0 1 -23.12306,23.12309 z M 424.34249,127.26321 a 20.072623,20.072623 0 0 0 -20.05017,20.0494 v 19.22248 l -1.4783,0.057 a 0.30040545,0.30040545 0 0 0 -0.28966,0.2949 v 12.49493 a 0.30148123,0.30148123 0 0 0 0.28966,0.29492 l 1.4783,0.0562 v 10.83364 l -1.16913,0.28816 a 0.30200376,0.30200376 0 0 0 -0.23113,0.28666 v 12.49581 a 0.30200376,0.30200376 0 0 0 0.23113,0.28665 l 1.16913,0.28816 v 7.66992 l -1.16913,0.28815 a 0.30200376,0.30200376 0 0 0 -0.23113,0.28667 v 12.49505 a 0.30220355,0.30220355 0 0 0 0.23113,0.28739 l 1.16913,0.28816 v 126.3981 a 20.072623,20.072623 0 0 0 20.05017,20.04942 h 79.01799 A 20.072469,20.072469 0 0 0 523.4099,351.92558 V 209.62116 h 1.36124 v -23.47502 h -1.36124 v -38.83365 a 20.072454,20.072454 0 0 0 -20.04942,-20.0494 z"
     fill="#3f3d56"
     id="path932"
     style="stroke-width:1.53684" />
  <circle
     cx="473.01828"
     cy="133.44385"
     r="1.8375187"
     fill="#3f3d56"
     id="circle934"
     style="stroke-width:1.53684" />
  <circle
     cx="465.03812"
     cy="318.92377"
     r="13.100026"
     fill="#ffffff"
     id="circle946"
     style="stroke-width:1.53684;fill:#000000" />
</svg>
